<svg width="60" height="60" viewBox="0 0 60 60" fill="none" xmlns="http://www.w3.org/2000/svg">
<path d="M30.0006 28.6941C35.0434 28.6941 39.1314 24.6061 39.1314 19.5633C39.1314 14.5205 35.0434 10.4325 30.0006 10.4325C24.9578 10.4325 20.8698 14.5205 20.8698 19.5633C20.8698 24.6061 24.9578 28.6941 30.0006 28.6941Z" fill="url(#paint0_linear_43_2921)"/>
<path d="M30.0007 41.7381C32.8823 41.7381 35.2183 39.4021 35.2183 36.5205C35.2183 33.6389 32.8823 31.3029 30.0007 31.3029C27.1191 31.3029 24.7831 33.6389 24.7831 36.5205C24.7831 39.4021 27.1191 41.7381 30.0007 41.7381Z" fill="url(#paint1_linear_43_2921)"/>
<path d="M30.0007 59.9998C32.8823 59.9998 35.2183 57.6638 35.2183 54.7822C35.2183 51.9006 32.8823 49.5646 30.0007 49.5646C27.1191 49.5646 24.7831 51.9006 24.7831 54.7822C24.7831 57.6638 27.1191 59.9998 30.0007 59.9998Z" fill="url(#paint2_linear_43_2921)"/>
<path d="M15.6522 56.0865C18.5338 56.0865 20.8698 53.7505 20.8698 50.8688C20.8698 47.9872 18.5338 45.6512 15.6522 45.6512C12.7706 45.6512 10.4346 47.9872 10.4346 50.8688C10.4346 53.7505 12.7706 56.0865 15.6522 56.0865Z" fill="url(#paint3_linear_43_2921)"/>
<path d="M44.3491 56.0865C47.2307 56.0865 49.5667 53.7505 49.5667 50.8688C49.5667 47.9872 47.2307 45.6512 44.3491 45.6512C41.4675 45.6512 39.1315 47.9872 39.1315 50.8688C39.1315 53.7505 41.4675 56.0865 44.3491 56.0865Z" fill="url(#paint4_linear_43_2921)"/>
<g filter="url(#filter0_bi_43_2921)">
<path d="M42.7837 33.912C42.5247 33.912 42.2715 33.8348 42.0564 33.6903C41.8414 33.5458 41.6743 33.3406 41.5763 33.1008C41.4784 32.8609 41.4541 32.5974 41.5065 32.3437C41.5589 32.09 41.6857 31.8576 41.8706 31.6763C44.2761 29.3185 45.9248 26.2977 46.6067 22.9992C47.2886 19.7007 46.9727 16.2738 45.6993 13.1556C44.4259 10.0373 42.2527 7.36888 39.4567 5.49058C36.6608 3.61227 33.3689 2.60917 30.0006 2.60917C26.6323 2.60917 23.3404 3.61227 20.5444 5.49058C17.7485 7.36888 15.5753 10.0373 14.3019 13.1556C13.0285 16.2738 12.7126 19.7007 13.3945 22.9992C14.0764 26.2977 15.7251 29.3185 18.1305 31.6763C18.2557 31.7955 18.3559 31.9384 18.4253 32.0967C18.4948 32.255 18.532 32.4256 18.535 32.5984C18.5379 32.7712 18.5065 32.9429 18.4425 33.1035C18.3785 33.2641 18.2832 33.4104 18.1622 33.5338C18.0412 33.6572 17.8968 33.7554 17.7376 33.8226C17.5783 33.8897 17.4072 33.9246 17.2344 33.925C17.0615 33.9255 16.8903 33.8916 16.7306 33.8253C16.571 33.7591 16.4261 33.6617 16.3044 33.5389C13.5289 30.8184 11.6265 27.333 10.8397 23.527C10.0529 19.721 10.4174 15.7669 11.8867 12.1689C13.356 8.57089 15.8636 5.49197 19.0897 3.3247C22.3157 1.15742 26.1141 0 30.0006 0C33.887 0 37.6855 1.15742 40.9115 3.3247C44.1376 5.49197 46.6451 8.57089 48.1144 12.1689C49.5837 15.7669 49.9482 19.721 49.1615 23.527C48.3747 27.333 46.4723 30.8184 43.6968 33.5389C43.453 33.778 43.1252 33.9119 42.7837 33.912Z" fill="#1D1D1D" fill-opacity="0.05"/>
<path d="M42.7837 33.912C42.5247 33.912 42.2715 33.8348 42.0564 33.6903C41.8414 33.5458 41.6743 33.3406 41.5763 33.1008C41.4784 32.8609 41.4541 32.5974 41.5065 32.3437C41.5589 32.09 41.6857 31.8576 41.8706 31.6763C44.2761 29.3185 45.9248 26.2977 46.6067 22.9992C47.2886 19.7007 46.9727 16.2738 45.6993 13.1556C44.4259 10.0373 42.2527 7.36888 39.4567 5.49058C36.6608 3.61227 33.3689 2.60917 30.0006 2.60917C26.6323 2.60917 23.3404 3.61227 20.5444 5.49058C17.7485 7.36888 15.5753 10.0373 14.3019 13.1556C13.0285 16.2738 12.7126 19.7007 13.3945 22.9992C14.0764 26.2977 15.7251 29.3185 18.1305 31.6763C18.2557 31.7955 18.3559 31.9384 18.4253 32.0967C18.4948 32.255 18.532 32.4256 18.535 32.5984C18.5379 32.7712 18.5065 32.9429 18.4425 33.1035C18.3785 33.2641 18.2832 33.4104 18.1622 33.5338C18.0412 33.6572 17.8968 33.7554 17.7376 33.8226C17.5783 33.8897 17.4072 33.9246 17.2344 33.925C17.0615 33.9255 16.8903 33.8916 16.7306 33.8253C16.571 33.7591 16.4261 33.6617 16.3044 33.5389C13.5289 30.8184 11.6265 27.333 10.8397 23.527C10.0529 19.721 10.4174 15.7669 11.8867 12.1689C13.356 8.57089 15.8636 5.49197 19.0897 3.3247C22.3157 1.15742 26.1141 0 30.0006 0C33.887 0 37.6855 1.15742 40.9115 3.3247C44.1376 5.49197 46.6451 8.57089 48.1144 12.1689C49.5837 15.7669 49.9482 19.721 49.1615 23.527C48.3747 27.333 46.4723 30.8184 43.6968 33.5389C43.453 33.778 43.1252 33.9119 42.7837 33.912Z" fill="url(#paint5_linear_43_2921)" fill-opacity="0.2"/>
<path d="M17.868 31.9441L17.868 31.9441C15.4094 29.5341 13.7242 26.4466 13.0273 23.0751C12.3303 19.7037 12.6532 16.201 13.9547 13.0138C15.2563 9.82655 17.4776 7.09914 20.3353 5.1793C23.1931 3.25946 26.5578 2.23417 30.0006 2.23417C33.4433 2.23417 36.8081 3.25946 39.6658 5.1793C42.5236 7.09914 44.7449 9.82655 46.0464 13.0138C47.348 16.201 47.6709 19.7037 46.9739 23.0751C46.277 26.4466 44.5917 29.5341 42.1331 31.9441M17.868 31.9441L42.7837 33.537C42.5991 33.5369 42.4188 33.482 42.2656 33.379C42.1124 33.2761 41.9933 33.1299 41.9235 32.959C41.8537 32.7881 41.8364 32.6003 41.8737 32.4196C41.9111 32.2388 42.0014 32.0733 42.1331 31.9441M17.868 31.9441L17.8719 31.9478C17.961 32.0327 18.0324 32.1346 18.0819 32.2473C18.1314 32.3601 18.1579 32.4816 18.16 32.6048C18.1621 32.7279 18.1397 32.8503 18.0941 32.9647C18.0485 33.0791 17.9807 33.1833 17.8944 33.2713C17.8082 33.3592 17.7053 33.4292 17.5919 33.477C17.4784 33.5249 17.3565 33.5497 17.2333 33.55C17.1102 33.5504 16.9882 33.5262 16.8744 33.479C16.7606 33.4318 16.6574 33.3624 16.5707 33.2749L16.5707 33.2749L16.5669 33.2711C13.8446 30.6028 11.9786 27.1841 11.2069 23.4511C10.4352 19.718 10.7928 15.8397 12.2339 12.3107C13.6751 8.78162 16.1345 5.76171 19.2988 3.63597C22.463 1.51024 26.1886 0.375 30.0006 0.375C33.8126 0.375 37.5382 1.51024 40.7024 3.63597C43.8666 5.76171 46.3261 8.78162 47.7673 12.3107C49.2084 15.8397 49.5659 19.718 48.7942 23.4511C48.0225 27.1841 46.1566 30.6028 43.4343 33.2711L43.4342 33.2712C43.2606 33.4415 43.027 33.5369 42.7838 33.537L17.868 31.9441ZM42.1331 31.9441L41.8706 31.6763L42.1332 31.944C42.1332 31.944 42.1332 31.944 42.1331 31.9441Z" stroke="url(#paint6_linear_43_2921)" stroke-opacity="0.1" stroke-width="0.75"/>
</g>
<g filter="url(#filter1_bi_43_2921)">
<path d="M30.0007 52.1734C29.6547 52.1734 29.323 52.036 29.0783 51.7914C28.8337 51.5467 28.6963 51.2149 28.6963 50.869V40.4338C28.6963 40.0878 28.8337 39.7561 29.0783 39.5114C29.323 39.2668 29.6547 39.1294 30.0007 39.1294C30.3466 39.1294 30.6784 39.2668 30.923 39.5114C31.1677 39.7561 31.3051 40.0878 31.3051 40.4338V50.869C31.3051 51.2149 31.1677 51.5467 30.923 51.7914C30.6784 52.036 30.3466 52.1734 30.0007 52.1734Z" fill="#1D1D1D" fill-opacity="0.05"/>
<path d="M30.0007 52.1734C29.6547 52.1734 29.323 52.036 29.0783 51.7914C28.8337 51.5467 28.6963 51.2149 28.6963 50.869V40.4338C28.6963 40.0878 28.8337 39.7561 29.0783 39.5114C29.323 39.2668 29.6547 39.1294 30.0007 39.1294C30.3466 39.1294 30.6784 39.2668 30.923 39.5114C31.1677 39.7561 31.3051 40.0878 31.3051 40.4338V50.869C31.3051 51.2149 31.1677 51.5467 30.923 51.7914C30.6784 52.036 30.3466 52.1734 30.0007 52.1734Z" fill="url(#paint7_linear_43_2921)" fill-opacity="0.2"/>
<path d="M30.0007 51.7984C29.7542 51.7984 29.5178 51.7005 29.3435 51.5262C29.1692 51.3519 29.0713 51.1155 29.0713 50.869V40.4338C29.0713 40.1873 29.1692 39.9509 29.3435 39.7766C29.5178 39.6023 29.7542 39.5044 30.0007 39.5044C30.2472 39.5044 30.4836 39.6023 30.6579 39.7766C30.8322 39.9509 30.9301 40.1873 30.9301 40.4338V50.869C30.9301 51.1155 30.8322 51.3519 30.6579 51.5262C30.4836 51.7005 30.2472 51.7984 30.0007 51.7984Z" stroke="url(#paint8_linear_43_2921)" stroke-opacity="0.1" stroke-width="0.75"/>
</g>
<g filter="url(#filter2_bi_43_2921)">
<path d="M15.6523 48.2608C15.3064 48.2608 14.9746 48.1234 14.73 47.8787C14.4853 47.6341 14.3479 47.3023 14.3479 46.9564V41.7388C14.3466 41.4953 14.4134 41.2563 14.5409 41.0488C14.6684 40.8413 14.8514 40.6737 15.0693 40.5648L25.5045 35.3472C25.8141 35.1926 26.1725 35.1673 26.5007 35.2769C26.829 35.3865 27.1003 35.622 27.255 35.9316C27.4096 36.2412 27.4349 36.5996 27.3253 36.9279C27.2157 37.2562 26.9802 37.5275 26.6706 37.6821L16.9567 42.5449V46.9564C16.9567 47.3023 16.8193 47.6341 16.5747 47.8787C16.33 48.1234 15.9983 48.2608 15.6523 48.2608Z" fill="#1D1D1D" fill-opacity="0.05"/>
<path d="M15.6523 48.2608C15.3064 48.2608 14.9746 48.1234 14.73 47.8787C14.4853 47.6341 14.3479 47.3023 14.3479 46.9564V41.7388C14.3466 41.4953 14.4134 41.2563 14.5409 41.0488C14.6684 40.8413 14.8514 40.6737 15.0693 40.5648L25.5045 35.3472C25.8141 35.1926 26.1725 35.1673 26.5007 35.2769C26.829 35.3865 27.1003 35.622 27.255 35.9316C27.4096 36.2412 27.4349 36.5996 27.3253 36.9279C27.2157 37.2562 26.9802 37.5275 26.6706 37.6821L16.9567 42.5449V46.9564C16.9567 47.3023 16.8193 47.6341 16.5747 47.8787C16.33 48.1234 15.9983 48.2608 15.6523 48.2608Z" fill="url(#paint9_linear_43_2921)" fill-opacity="0.2"/>
<path d="M14.7229 41.7388L14.7229 41.7367C14.722 41.5632 14.7696 41.3929 14.8604 41.2451C14.9513 41.0973 15.0817 40.9778 15.2369 40.9003L15.237 40.9002L25.672 35.6827C25.8927 35.5725 26.1481 35.5545 26.382 35.6326C26.6159 35.7107 26.8093 35.8785 26.9195 36.0992C27.0297 36.3198 27.0477 36.5752 26.9696 36.8091C26.8915 37.0431 26.7237 37.2364 26.503 37.3466L26.5027 37.3468L16.7889 42.2096L16.5817 42.3133V42.5449V46.9564C16.5817 47.2029 16.4838 47.4393 16.3095 47.6136C16.1352 47.7879 15.8988 47.8858 15.6523 47.8858C15.4058 47.8858 15.1694 47.7879 14.9951 47.6136C14.8208 47.4393 14.7229 47.2029 14.7229 46.9564L14.7229 41.7388Z" stroke="url(#paint10_linear_43_2921)" stroke-opacity="0.1" stroke-width="0.75"/>
</g>
<g filter="url(#filter3_bi_43_2921)">
<path d="M44.3494 48.2606C44.0035 48.2606 43.6717 48.1231 43.4271 47.8785C43.1824 47.6339 43.045 47.3021 43.045 46.9562V42.5447L33.3311 37.6949C33.0215 37.5403 32.786 37.269 32.6764 36.9407C32.5668 36.6124 32.5921 36.254 32.7468 35.9444C32.9014 35.6348 33.1727 35.3993 33.501 35.2897C33.8293 35.1801 34.1876 35.2054 34.4973 35.36L44.9325 40.5776C45.1483 40.6855 45.33 40.8511 45.4574 41.0561C45.5847 41.261 45.6527 41.4973 45.6538 41.7386V46.9562C45.6538 47.3021 45.5164 47.6339 45.2718 47.8785C45.0271 48.1231 44.6954 48.2606 44.3494 48.2606Z" fill="#1D1D1D" fill-opacity="0.05"/>
<path d="M44.3494 48.2606C44.0035 48.2606 43.6717 48.1231 43.4271 47.8785C43.1824 47.6339 43.045 47.3021 43.045 46.9562V42.5447L33.3311 37.6949C33.0215 37.5403 32.786 37.269 32.6764 36.9407C32.5668 36.6124 32.5921 36.254 32.7468 35.9444C32.9014 35.6348 33.1727 35.3993 33.501 35.2897C33.8293 35.1801 34.1876 35.2054 34.4973 35.36L44.9325 40.5776C45.1483 40.6855 45.33 40.8511 45.4574 41.0561C45.5847 41.261 45.6527 41.4973 45.6538 41.7386V46.9562C45.6538 47.3021 45.5164 47.6339 45.2718 47.8785C45.0271 48.1231 44.6954 48.2606 44.3494 48.2606Z" fill="url(#paint11_linear_43_2921)" fill-opacity="0.2"/>
<path d="M43.42 42.5447V42.3128L43.2125 42.2092L33.4987 37.3594C33.4987 37.3594 33.4987 37.3594 33.4986 37.3594C33.278 37.2492 33.1102 37.0559 33.0321 36.8219C32.954 36.588 32.972 36.3326 33.0822 36.112C33.1924 35.8913 33.3858 35.7235 33.6197 35.6454C33.8536 35.5673 34.1089 35.5853 34.3296 35.6955C34.3296 35.6955 34.3296 35.6955 34.3297 35.6955C34.3297 35.6955 34.3297 35.6955 34.3297 35.6955L44.7648 40.9131L44.7648 40.9131C44.9186 40.9899 45.0481 41.1079 45.1388 41.254C45.2294 41.3998 45.2779 41.5678 45.2788 41.7395V46.9562C45.2788 47.2027 45.1809 47.4391 45.0066 47.6133C44.8323 47.7876 44.5959 47.8856 44.3494 47.8856C44.1029 47.8856 43.8665 47.7876 43.6922 47.6133C43.5179 47.4391 43.42 47.2027 43.42 46.9562V42.5447Z" stroke="url(#paint12_linear_43_2921)" stroke-opacity="0.1" stroke-width="0.75"/>
</g>
<defs>
<filter id="filter0_bi_43_2921" x="-4.56543" y="-15" width="69.1321" height="63.9251" filterUnits="userSpaceOnUse" color-interpolation-filters="sRGB">
<feFlood flood-opacity="0" result="BackgroundImageFix"/>
<feGaussianBlur in="BackgroundImageFix" stdDeviation="7.5"/>
<feComposite in2="SourceAlpha" operator="in" result="effect1_backgroundBlur_43_2921"/>
<feBlend mode="normal" in="SourceGraphic" in2="effect1_backgroundBlur_43_2921" result="shape"/>
<feColorMatrix in="SourceAlpha" type="matrix" values="0 0 0 0 0 0 0 0 0 0 0 0 0 0 0 0 0 0 127 0" result="hardAlpha"/>
<feOffset dy="5"/>
<feGaussianBlur stdDeviation="3.75"/>
<feComposite in2="hardAlpha" operator="arithmetic" k2="-1" k3="1"/>
<feColorMatrix type="matrix" values="0 0 0 0 1 0 0 0 0 1 0 0 0 0 1 0 0 0 0.15 0"/>
<feBlend mode="normal" in2="shape" result="effect2_innerShadow_43_2921"/>
</filter>
<filter id="filter1_bi_43_2921" x="13.6963" y="24.1294" width="32.6088" height="43.0441" filterUnits="userSpaceOnUse" color-interpolation-filters="sRGB">
<feFlood flood-opacity="0" result="BackgroundImageFix"/>
<feGaussianBlur in="BackgroundImageFix" stdDeviation="7.5"/>
<feComposite in2="SourceAlpha" operator="in" result="effect1_backgroundBlur_43_2921"/>
<feBlend mode="normal" in="SourceGraphic" in2="effect1_backgroundBlur_43_2921" result="shape"/>
<feColorMatrix in="SourceAlpha" type="matrix" values="0 0 0 0 0 0 0 0 0 0 0 0 0 0 0 0 0 0 127 0" result="hardAlpha"/>
<feOffset dy="5"/>
<feGaussianBlur stdDeviation="3.75"/>
<feComposite in2="hardAlpha" operator="arithmetic" k2="-1" k3="1"/>
<feColorMatrix type="matrix" values="0 0 0 0 1 0 0 0 0 1 0 0 0 0 1 0 0 0 0.15 0"/>
<feBlend mode="normal" in2="shape" result="effect2_innerShadow_43_2921"/>
</filter>
<filter id="filter2_bi_43_2921" x="-0.652102" y="20.2097" width="43.0446" height="43.051" filterUnits="userSpaceOnUse" color-interpolation-filters="sRGB">
<feFlood flood-opacity="0" result="BackgroundImageFix"/>
<feGaussianBlur in="BackgroundImageFix" stdDeviation="7.5"/>
<feComposite in2="SourceAlpha" operator="in" result="effect1_backgroundBlur_43_2921"/>
<feBlend mode="normal" in="SourceGraphic" in2="effect1_backgroundBlur_43_2921" result="shape"/>
<feColorMatrix in="SourceAlpha" type="matrix" values="0 0 0 0 0 0 0 0 0 0 0 0 0 0 0 0 0 0 127 0" result="hardAlpha"/>
<feOffset dy="5"/>
<feGaussianBlur stdDeviation="3.75"/>
<feComposite in2="hardAlpha" operator="arithmetic" k2="-1" k3="1"/>
<feColorMatrix type="matrix" values="0 0 0 0 1 0 0 0 0 1 0 0 0 0 1 0 0 0 0.15 0"/>
<feBlend mode="normal" in2="shape" result="effect2_innerShadow_43_2921"/>
</filter>
<filter id="filter3_bi_43_2921" x="17.6093" y="20.2225" width="43.0446" height="43.0381" filterUnits="userSpaceOnUse" color-interpolation-filters="sRGB">
<feFlood flood-opacity="0" result="BackgroundImageFix"/>
<feGaussianBlur in="BackgroundImageFix" stdDeviation="7.5"/>
<feComposite in2="SourceAlpha" operator="in" result="effect1_backgroundBlur_43_2921"/>
<feBlend mode="normal" in="SourceGraphic" in2="effect1_backgroundBlur_43_2921" result="shape"/>
<feColorMatrix in="SourceAlpha" type="matrix" values="0 0 0 0 0 0 0 0 0 0 0 0 0 0 0 0 0 0 127 0" result="hardAlpha"/>
<feOffset dy="5"/>
<feGaussianBlur stdDeviation="3.75"/>
<feComposite in2="hardAlpha" operator="arithmetic" k2="-1" k3="1"/>
<feColorMatrix type="matrix" values="0 0 0 0 1 0 0 0 0 1 0 0 0 0 1 0 0 0 0.15 0"/>
<feBlend mode="normal" in2="shape" result="effect2_innerShadow_43_2921"/>
</filter>
<linearGradient id="paint0_linear_43_2921" x1="21.6307" y1="14.0848" x2="41.5373" y2="16.8496" gradientUnits="userSpaceOnUse">
<stop stop-color="#8AE6CF"/>
<stop offset="1" stop-color="#7C3AE7"/>
</linearGradient>
<linearGradient id="paint1_linear_43_2921" x1="25.2179" y1="33.3899" x2="36.5931" y2="34.9698" gradientUnits="userSpaceOnUse">
<stop stop-color="#8AE6CF"/>
<stop offset="1" stop-color="#7C3AE7"/>
</linearGradient>
<linearGradient id="paint2_linear_43_2921" x1="25.2179" y1="51.6516" x2="36.5931" y2="53.2315" gradientUnits="userSpaceOnUse">
<stop stop-color="#8AE6CF"/>
<stop offset="1" stop-color="#7C3AE7"/>
</linearGradient>
<linearGradient id="paint3_linear_43_2921" x1="10.8694" y1="47.7383" x2="22.2446" y2="49.3182" gradientUnits="userSpaceOnUse">
<stop stop-color="#8AE6CF"/>
<stop offset="1" stop-color="#7C3AE7"/>
</linearGradient>
<linearGradient id="paint4_linear_43_2921" x1="39.5663" y1="47.7383" x2="50.9415" y2="49.3182" gradientUnits="userSpaceOnUse">
<stop stop-color="#8AE6CF"/>
<stop offset="1" stop-color="#7C3AE7"/>
</linearGradient>
<linearGradient id="paint5_linear_43_2921" x1="12.0651" y1="6.78501" x2="54.4571" y2="13.5765" gradientUnits="userSpaceOnUse">
<stop stop-color="#66FECB"/>
<stop offset="1" stop-color="#8940FF"/>
</linearGradient>
<linearGradient id="paint6_linear_43_2921" x1="11.6574" y1="1.54205" x2="49.5666" y2="1.54205" gradientUnits="userSpaceOnUse">
<stop stop-color="#C8A6FF"/>
<stop offset="1" stop-color="#69CFB5"/>
</linearGradient>
<linearGradient id="paint7_linear_43_2921" x1="28.805" y1="41.7382" x2="31.7014" y2="41.8187" gradientUnits="userSpaceOnUse">
<stop stop-color="#66FECB"/>
<stop offset="1" stop-color="#8940FF"/>
</linearGradient>
<linearGradient id="paint8_linear_43_2921" x1="28.7778" y1="39.7223" x2="31.3051" y2="39.7223" gradientUnits="userSpaceOnUse">
<stop stop-color="#C8A6FF"/>
<stop offset="1" stop-color="#69CFB5"/>
</linearGradient>
<linearGradient id="paint9_linear_43_2921" x1="14.8914" y1="37.8199" x2="29.1114" y2="39.7939" gradientUnits="userSpaceOnUse">
<stop stop-color="#66FECB"/>
<stop offset="1" stop-color="#8940FF"/>
</linearGradient>
<linearGradient id="paint10_linear_43_2921" x1="14.7555" y1="35.8029" x2="27.3925" y2="35.8029" gradientUnits="userSpaceOnUse">
<stop stop-color="#C8A6FF"/>
<stop offset="1" stop-color="#69CFB5"/>
</linearGradient>
<linearGradient id="paint11_linear_43_2921" x1="33.1528" y1="37.8301" x2="47.3722" y2="39.806" gradientUnits="userSpaceOnUse">
<stop stop-color="#66FECB"/>
<stop offset="1" stop-color="#8940FF"/>
</linearGradient>
<linearGradient id="paint12_linear_43_2921" x1="33.0169" y1="35.8152" x2="45.6538" y2="35.8152" gradientUnits="userSpaceOnUse">
<stop stop-color="#C8A6FF"/>
<stop offset="1" stop-color="#69CFB5"/>
</linearGradient>
</defs>
</svg>
