<svg width="457" height="457" viewBox="0 0 457 457" fill="none" xmlns="http://www.w3.org/2000/svg">
<path d="M457 228.5C457 354.697 354.697 457 228.5 457C102.303 457 0 354.697 0 228.5C0 102.303 102.303 0 228.5 0C354.697 0 457 102.303 457 228.5ZM24.7408 228.5C24.7408 341.033 115.967 432.259 228.5 432.259C341.033 432.259 432.259 341.033 432.259 228.5C432.259 115.967 341.033 24.7408 228.5 24.7408C115.967 24.7408 24.7408 115.967 24.7408 228.5Z" fill="white"/>
<path d="M361.66 398.736C365.869 404.117 373.669 405.092 378.815 400.598C400.016 382.081 417.641 359.78 430.769 334.8C445.818 306.164 454.615 274.659 456.579 242.37C458.542 210.08 453.627 177.742 442.159 147.494C430.691 117.246 412.931 89.7772 390.054 66.9058C367.176 44.0343 339.704 26.2811 309.452 14.8205C279.201 3.35986 246.862 -1.54688 214.573 0.424838C182.284 2.39656 150.781 11.2018 122.149 26.2581C97.1721 39.3926 74.8761 57.023 56.3639 78.2288C51.8709 83.3755 52.848 91.1747 58.2303 95.3827C63.6126 99.5906 71.3595 98.6103 75.8862 93.4932C92.2179 75.0316 111.788 59.6598 133.665 48.1558C159.196 34.7298 187.288 26.8779 216.081 25.1197C244.874 23.3615 273.712 27.7369 300.687 37.9566C327.663 48.1763 352.161 64.0073 372.561 84.4024C392.962 104.797 408.799 129.292 419.025 156.265C429.252 183.238 433.634 212.075 431.883 240.868C430.132 269.662 422.288 297.755 408.868 323.29C397.37 345.17 382.003 364.743 363.545 381.08C358.429 385.608 357.451 393.355 361.66 398.736Z" fill="#30AEDF"/>
<path d="M52.4478 103.13C46.8826 99.1671 39.1277 100.449 35.4716 106.22C20.0264 130.602 9.31951 157.722 3.95741 186.158C-2.16984 218.651 -1.1721 252.086 6.88173 284.156C14.9356 316.226 29.8536 346.166 50.6058 371.908C68.7666 394.436 91.0167 413.28 116.149 427.471C122.098 430.83 129.538 428.296 132.571 422.174C135.603 416.052 133.076 408.663 127.149 405.265C105.215 392.689 85.7807 376.121 69.8673 356.381C51.3621 333.425 38.0593 306.727 30.8775 278.13C23.6957 249.532 22.8059 219.717 28.2698 190.742C32.9683 165.826 42.269 142.041 55.6586 120.594C59.2767 114.799 58.0129 107.093 52.4478 103.13Z" fill="#304CDF"/>
<path d="M144.625 427.691C141.973 433.987 144.919 441.275 151.35 443.582C183.428 455.088 217.728 459.292 251.735 455.816C285.742 452.34 318.482 441.284 347.57 423.525C353.401 419.965 354.811 412.232 350.941 406.602C347.07 400.972 339.386 399.581 333.532 403.103C307.882 418.533 279.099 428.149 249.219 431.203C219.34 434.257 189.207 430.663 160.965 420.742C154.519 418.477 147.276 421.394 144.625 427.691Z" fill="#A730DF"/>
<circle cx="241.5" cy="418.5" r="4.5" transform="rotate(90 241.5 418.5)" fill="#A730DF"/>
<path d="M242.199 421.078L241.501 381.078" stroke="#A730DF" stroke-opacity="0.31"/>
<path d="M188.534 369V357.56H190.47L194.006 366.472L197.43 357.56H199.35V369H197.958V359.368L194.166 369H193.734L189.814 359.368V369H188.534ZM204.237 369.144C202.685 369.144 201.453 368.392 201.453 366.68C201.453 364.744 203.501 364.088 205.645 364.088H206.845V363.48C206.845 362.152 206.333 361.592 205.053 361.592C203.901 361.592 203.261 362.072 203.133 363.096H201.805C201.981 361.192 203.501 360.488 205.117 360.488C206.717 360.488 208.173 361.144 208.173 363.48V369H206.845V367.944C206.221 368.728 205.469 369.144 204.237 369.144ZM204.365 368.088C205.773 368.088 206.845 367.368 206.845 366.072V365.032H205.693C204.013 365.032 202.781 365.448 202.781 366.68C202.781 367.544 203.197 368.088 204.365 368.088ZM210.782 369V360.632H212.11V362.136C212.638 361.192 213.358 360.536 214.862 360.488V361.736C213.182 361.816 212.11 362.344 212.11 364.408V369H210.782ZM216.797 369V356.632H218.125V364.488L221.597 360.632H223.149L219.565 364.52L223.453 369H221.837L218.125 364.664V369H216.797ZM228.159 369.144C225.791 369.144 224.111 367.48 224.111 364.904V364.776C224.111 362.248 225.727 360.488 228.031 360.488C229.967 360.488 231.791 361.656 231.791 364.648V365.08H225.487C225.551 366.984 226.463 368.04 228.175 368.04C229.471 368.04 230.223 367.56 230.399 366.584H231.727C231.439 368.264 230.047 369.144 228.159 369.144ZM225.535 364.008H230.431C230.303 362.28 229.407 361.592 228.031 361.592C226.671 361.592 225.759 362.52 225.535 364.008ZM236.372 369.112C234.852 369.112 234.116 368.216 234.116 366.904V361.752H232.916V360.632H234.116V358.728H235.444V360.632H237.396V361.752H235.444V366.776C235.444 367.592 235.812 367.992 236.484 367.992C236.9 367.992 237.22 367.928 237.508 367.816V368.936C237.236 369.032 236.916 369.112 236.372 369.112ZM239.548 369V360.632H240.876V369H239.548ZM240.188 358.888C239.708 358.888 239.308 358.488 239.308 358.008C239.308 357.528 239.708 357.128 240.188 357.128C240.668 357.128 241.068 357.528 241.068 358.008C241.068 358.488 240.668 358.888 240.188 358.888ZM243.594 369V360.632H244.922V361.96C245.306 361.176 246.234 360.488 247.61 360.488C249.338 360.488 250.554 361.432 250.554 363.864V369H249.226V363.768C249.226 362.296 248.602 361.64 247.258 361.64C246.026 361.64 244.922 362.424 244.922 363.928V369H243.594ZM256.501 372.056C254.021 372.056 252.933 370.888 252.709 369.48H254.069C254.261 370.44 255.061 370.936 256.485 370.936C258.133 370.936 259.173 370.152 259.173 368.36V367.144C258.693 367.96 257.557 368.728 256.341 368.728C254.149 368.728 252.533 367.064 252.533 364.76V364.648C252.533 362.376 254.133 360.488 256.437 360.488C257.829 360.488 258.693 361.16 259.173 361.976V360.632H260.501V368.44C260.485 370.872 258.837 372.056 256.501 372.056ZM256.485 367.624C258.037 367.624 259.221 366.536 259.221 364.664V364.552C259.221 362.68 258.197 361.592 256.565 361.592C254.901 361.592 253.909 362.824 253.909 364.584V364.712C253.909 366.536 255.077 367.624 256.485 367.624ZM269.166 369V358.936L266.606 360.776V359.48L269.262 357.56H270.558V369H269.166ZM277.973 367.992C279.973 367.992 280.997 366.456 280.997 363.56V362.92C280.997 360.264 279.877 358.536 277.941 358.536C276.005 358.536 274.853 360.136 274.853 362.952V363.592C274.853 366.488 276.069 367.992 277.973 367.992ZM277.973 369.144C275.237 369.144 273.429 366.936 273.429 363.608V362.968C273.429 359.592 275.141 357.416 277.941 357.416C280.757 357.416 282.405 359.672 282.405 362.936V363.576C282.405 366.904 280.789 369.144 277.973 369.144ZM286.527 361.832C287.391 361.832 287.935 361.24 287.935 360.168C287.935 359.144 287.391 358.504 286.527 358.504C285.679 358.504 285.119 359.096 285.119 360.184C285.119 361.272 285.679 361.832 286.527 361.832ZM286.527 362.872C285.167 362.872 283.903 361.752 283.903 360.2C283.903 358.616 285.135 357.464 286.527 357.464C287.951 357.464 289.151 358.616 289.151 360.168C289.151 361.752 287.903 362.872 286.527 362.872ZM285.519 369L292.511 357.56H293.727L286.735 369H285.519ZM292.735 368.088C293.599 368.088 294.143 367.496 294.143 366.424C294.143 365.4 293.599 364.76 292.735 364.76C291.887 364.76 291.327 365.352 291.327 366.44C291.327 367.528 291.887 368.088 292.735 368.088ZM292.735 369.128C291.375 369.128 290.111 368.008 290.111 366.456C290.111 364.872 291.343 363.72 292.735 363.72C294.159 363.72 295.359 364.872 295.359 366.424C295.359 368.008 294.111 369.128 292.735 369.128Z" fill="#0A0A14"/>
<path d="M276.479 227V215.56H277.871V225.864H283.103V227H276.479ZM284.978 227V218.632H286.306V227H284.978ZM285.618 216.888C285.138 216.888 284.738 216.488 284.738 216.008C284.738 215.528 285.138 215.128 285.618 215.128C286.098 215.128 286.498 215.528 286.498 216.008C286.498 216.488 286.098 216.888 285.618 216.888ZM295.04 229.912V225.56C294.56 226.376 293.392 227.144 292.176 227.144C289.984 227.144 288.4 225.592 288.4 222.984V222.856C288.4 220.296 290 218.488 292.304 218.488C293.696 218.488 294.56 219.16 295.04 219.976V218.632H296.368V229.912H295.04ZM292.32 226.04C293.872 226.04 295.088 225.016 295.088 222.872V222.744C295.088 220.6 294.064 219.592 292.432 219.592C290.768 219.592 289.776 220.76 289.776 222.792V222.92C289.776 225.032 290.912 226.04 292.32 226.04ZM301.887 227.144C300.223 227.144 298.975 226.232 298.975 223.928V218.632H300.303V223.864C300.303 225.336 300.927 225.992 302.239 225.992C303.423 225.992 304.543 225.208 304.543 223.704V218.632H305.871V227H304.543V225.672C304.159 226.456 303.231 227.144 301.887 227.144ZM308.587 227V218.632H309.915V227H308.587ZM309.227 216.888C308.747 216.888 308.347 216.488 308.347 216.008C308.347 215.528 308.747 215.128 309.227 215.128C309.707 215.128 310.107 215.528 310.107 216.008C310.107 216.488 309.707 216.888 309.227 216.888ZM315.785 227.144C313.593 227.144 312.009 225.592 312.009 222.984V222.856C312.009 220.296 313.609 218.488 315.913 218.488C317.305 218.488 318.169 219.16 318.649 219.976V214.632H319.977V227H318.649V225.56C318.169 226.376 317.001 227.144 315.785 227.144ZM315.929 226.04C317.481 226.04 318.697 225.016 318.697 222.872V222.744C318.697 220.6 317.673 219.592 316.041 219.592C314.377 219.592 313.385 220.76 313.385 222.792V222.92C313.385 225.032 314.521 226.04 315.929 226.04ZM322.696 227V218.632H324.024V227H322.696ZM323.336 216.888C322.856 216.888 322.456 216.488 322.456 216.008C322.456 215.528 322.856 215.128 323.336 215.128C323.816 215.128 324.216 215.528 324.216 216.008C324.216 216.488 323.816 216.888 323.336 216.888ZM329.286 227.112C327.766 227.112 327.03 226.216 327.03 224.904V219.752H325.83V218.632H327.03V216.728H328.358V218.632H330.31V219.752H328.358V224.776C328.358 225.592 328.726 225.992 329.398 225.992C329.814 225.992 330.134 225.928 330.422 225.816V226.936C330.15 227.032 329.83 227.112 329.286 227.112ZM333.182 229.912L334.766 226.136L331.486 218.632H332.91L335.47 224.632L337.79 218.632H339.15L334.526 229.912H333.182ZM348.653 227.144C346.781 227.144 344.701 226.024 344.701 223.752C344.701 222.216 345.645 221.224 346.861 220.792C345.773 220.376 345.133 219.512 345.133 218.392C345.133 216.536 346.893 215.416 348.653 215.416C350.429 215.416 352.157 216.568 352.157 218.36C352.157 219.512 351.453 220.312 350.397 220.776C351.725 221.256 352.589 222.248 352.589 223.72C352.589 226.008 350.589 227.144 348.653 227.144ZM348.653 226.008C350.061 226.008 351.165 225.192 351.165 223.672C351.165 222.168 350.045 221.4 348.685 221.4C347.325 221.4 346.125 222.184 346.125 223.704C346.125 225.208 347.325 226.008 348.653 226.008ZM348.701 220.296C349.917 220.296 350.749 219.592 350.749 218.376C350.749 217.272 349.837 216.504 348.653 216.504C347.469 216.504 346.541 217.224 346.541 218.408C346.541 219.608 347.533 220.296 348.701 220.296ZM358.004 227.144C355.54 227.144 354.356 225.784 354.196 223.912H355.524C355.748 225.16 356.244 226.024 357.988 226.024C359.54 226.024 360.5 224.984 360.5 223.256C360.5 221.64 359.556 220.584 358.1 220.584C356.772 220.584 356.004 221 355.396 221.688H354.884V215.56H361.316V216.76H356.036V220.248C356.5 219.816 357.284 219.464 358.372 219.464C360.42 219.464 361.924 220.92 361.924 223.256C361.924 225.672 360.18 227.144 358.004 227.144ZM365.582 219.832C366.446 219.832 366.99 219.24 366.99 218.168C366.99 217.144 366.446 216.504 365.582 216.504C364.734 216.504 364.174 217.096 364.174 218.184C364.174 219.272 364.734 219.832 365.582 219.832ZM365.582 220.872C364.222 220.872 362.958 219.752 362.958 218.2C362.958 216.616 364.19 215.464 365.582 215.464C367.006 215.464 368.206 216.616 368.206 218.168C368.206 219.752 366.958 220.872 365.582 220.872ZM364.574 227L371.566 215.56H372.782L365.79 227H364.574ZM371.79 226.088C372.654 226.088 373.198 225.496 373.198 224.424C373.198 223.4 372.654 222.76 371.79 222.76C370.942 222.76 370.382 223.352 370.382 224.44C370.382 225.528 370.942 226.088 371.79 226.088ZM371.79 227.128C370.43 227.128 369.166 226.008 369.166 224.456C369.166 222.872 370.398 221.72 371.79 221.72C373.214 221.72 374.414 222.872 374.414 224.424C374.414 226.008 373.166 227.128 371.79 227.128Z" fill="#0A0A14"/>
<path d="M420.005 221.5H380" stroke="#30AEDF" stroke-opacity="0.31"/>
<circle cx="418.5" cy="221.5" r="4.5" fill="#30AEDF"/>
<path d="M44.9946 221.5H85" stroke="#304CDF" stroke-opacity="0.31"/>
<circle cx="4.5" cy="4.5" r="4.5" transform="matrix(-1 0 0 1 51 217)" fill="#304CDF"/>
<path d="M93.8779 227V216.696H90.5499V215.56H98.5979V216.696H95.2699V227H93.8779ZM102.62 227.144C100.252 227.144 98.5716 225.48 98.5716 222.904V222.776C98.5716 220.248 100.188 218.488 102.492 218.488C104.428 218.488 106.252 219.656 106.252 222.648V223.08H99.9476C100.012 224.984 100.924 226.04 102.636 226.04C103.932 226.04 104.684 225.56 104.86 224.584H106.188C105.9 226.264 104.508 227.144 102.62 227.144ZM99.9956 222.008H104.892C104.764 220.28 103.868 219.592 102.492 219.592C101.132 219.592 100.22 220.52 99.9956 222.008ZM110.463 227.144C108.911 227.144 107.679 226.392 107.679 224.68C107.679 222.744 109.727 222.088 111.871 222.088H113.071V221.48C113.071 220.152 112.559 219.592 111.279 219.592C110.127 219.592 109.487 220.072 109.359 221.096H108.031C108.207 219.192 109.727 218.488 111.343 218.488C112.943 218.488 114.399 219.144 114.399 221.48V227H113.071V225.944C112.447 226.728 111.695 227.144 110.463 227.144ZM110.591 226.088C111.999 226.088 113.071 225.368 113.071 224.072V223.032H111.919C110.239 223.032 109.007 223.448 109.007 224.68C109.007 225.544 109.423 226.088 110.591 226.088ZM117.008 227V218.632H118.336V219.912C118.72 219.128 119.632 218.488 120.832 218.488C121.904 218.488 122.848 218.936 123.28 220.056C123.856 218.968 125.104 218.488 126.144 218.488C127.648 218.488 128.96 219.384 128.96 221.816V227H127.632V221.72C127.632 220.248 127.008 219.64 125.856 219.64C124.768 219.64 123.648 220.376 123.648 221.88V227H122.32V221.72C122.32 220.248 121.696 219.64 120.544 219.64C119.456 219.64 118.336 220.376 118.336 221.88V227H117.008ZM138.957 227.144C136.493 227.144 135.309 225.784 135.149 223.912H136.477C136.701 225.16 137.197 226.024 138.941 226.024C140.493 226.024 141.453 224.984 141.453 223.256C141.453 221.64 140.509 220.584 139.053 220.584C137.725 220.584 136.957 221 136.349 221.688H135.837V215.56H142.269V216.76H136.989V220.248C137.453 219.816 138.237 219.464 139.325 219.464C141.373 219.464 142.877 220.92 142.877 223.256C142.877 225.672 141.133 227.144 138.957 227.144ZM146.535 219.832C147.399 219.832 147.943 219.24 147.943 218.168C147.943 217.144 147.399 216.504 146.535 216.504C145.687 216.504 145.127 217.096 145.127 218.184C145.127 219.272 145.687 219.832 146.535 219.832ZM146.535 220.872C145.175 220.872 143.911 219.752 143.911 218.2C143.911 216.616 145.143 215.464 146.535 215.464C147.959 215.464 149.159 216.616 149.159 218.168C149.159 219.752 147.911 220.872 146.535 220.872ZM145.527 227L152.519 215.56H153.735L146.743 227H145.527ZM152.743 226.088C153.607 226.088 154.151 225.496 154.151 224.424C154.151 223.4 153.607 222.76 152.743 222.76C151.895 222.76 151.335 223.352 151.335 224.44C151.335 225.528 151.895 226.088 152.743 226.088ZM152.743 227.128C151.383 227.128 150.119 226.008 150.119 224.456C150.119 222.872 151.351 221.72 152.743 221.72C154.167 221.72 155.367 222.872 155.367 224.424C155.367 226.008 154.119 227.128 152.743 227.128Z" fill="#0A0A14"/>
</svg>
