<svg width="60" height="60" viewBox="0 0 60 60" fill="none" xmlns="http://www.w3.org/2000/svg">
<path d="M3.91304 5.21851H40.4348C41.8755 5.21851 43.0435 6.38646 43.0435 7.8272V13.0446H3.91304C1.75193 13.0446 0 11.2927 0 9.13155C0 6.97043 1.75192 5.21851 3.91304 5.21851Z" fill="url(#paint0_linear_43_2927)"/>
<path d="M48.2623 3.91357H6.521V51.7395H48.2623V3.91357Z" fill="url(#paint1_linear_43_2927)"/>
<g filter="url(#filter0_bi_43_2927)">
<path d="M46.9558 0H7.82534C7.10498 0 6.521 0.583983 6.521 1.30435V51.7391H48.2601V1.30435C48.2601 0.583983 47.6761 0 46.9558 0Z" fill="white" fill-opacity="0.16"/>
<path d="M7.82534 0.375H46.9558C47.469 0.375 47.8851 0.79109 47.8851 1.30435V51.3641H6.896V1.30435C6.896 0.791089 7.31209 0.375 7.82534 0.375Z" stroke="url(#paint2_linear_43_2927)" stroke-opacity="0.1" stroke-width="0.75"/>
</g>
<g filter="url(#filter1_bi_43_2927)">
<path d="M0 9.13086V50.8699C0 55.9125 4.08785 60.0003 9.13044 60.0003H52.1739C53.6147 60.0003 54.7826 58.8324 54.7826 57.3917V15.6525C54.7826 14.2117 53.6147 13.0438 52.1739 13.0438H3.91304C1.75194 13.0438 0 11.292 0 9.13086Z" fill="#1D1D1D" fill-opacity="0.05"/>
<path d="M0 9.13086V50.8699C0 55.9125 4.08785 60.0003 9.13044 60.0003H52.1739C53.6147 60.0003 54.7826 58.8324 54.7826 57.3917V15.6525C54.7826 14.2117 53.6147 13.0438 52.1739 13.0438H3.91304C1.75194 13.0438 0 11.292 0 9.13086Z" fill="url(#paint3_linear_43_2927)" fill-opacity="0.2"/>
<path d="M0.375 50.8699V11.5543C1.14778 12.6803 2.44417 13.4188 3.91304 13.4188H52.1739C53.4076 13.4188 54.4076 14.4188 54.4076 15.6525V57.3917C54.4076 58.6253 53.4076 59.6253 52.1739 59.6253H9.13044C4.29495 59.6253 0.375 55.7054 0.375 50.8699Z" stroke="url(#paint4_linear_43_2927)" stroke-opacity="0.1" stroke-width="0.75"/>
</g>
<g filter="url(#filter2_i_43_2927)">
<path d="M58.6961 30H45.6526C42.0567 30 39.1309 32.9259 39.1309 36.5217C39.1309 40.1176 42.0567 43.0435 45.6526 43.0435H58.6961C59.4164 43.0435 60.0004 42.4595 60.0004 41.7391V31.3043C60.0004 30.584 59.4164 30 58.6961 30Z" fill="url(#paint5_linear_43_2927)"/>
</g>
<g filter="url(#filter3_i_43_2927)">
<path d="M45.6531 39.131C47.0939 39.131 48.2618 37.963 48.2618 36.5223C48.2618 35.0815 47.0939 33.9136 45.6531 33.9136C44.2124 33.9136 43.0444 35.0815 43.0444 36.5223C43.0444 37.963 44.2124 39.131 45.6531 39.131Z" fill="white" fill-opacity="0.1"/>
</g>
<defs>
<filter id="filter0_bi_43_2927" x="0.520996" y="-6" width="53.7391" height="63.7391" filterUnits="userSpaceOnUse" color-interpolation-filters="sRGB">
<feFlood flood-opacity="0" result="BackgroundImageFix"/>
<feGaussianBlur in="BackgroundImageFix" stdDeviation="3"/>
<feComposite in2="SourceAlpha" operator="in" result="effect1_backgroundBlur_43_2927"/>
<feBlend mode="normal" in="SourceGraphic" in2="effect1_backgroundBlur_43_2927" result="shape"/>
<feColorMatrix in="SourceAlpha" type="matrix" values="0 0 0 0 0 0 0 0 0 0 0 0 0 0 0 0 0 0 127 0" result="hardAlpha"/>
<feOffset dy="2"/>
<feGaussianBlur stdDeviation="1.5"/>
<feComposite in2="hardAlpha" operator="arithmetic" k2="-1" k3="1"/>
<feColorMatrix type="matrix" values="0 0 0 0 1 0 0 0 0 1 0 0 0 0 1 0 0 0 0.4 0"/>
<feBlend mode="normal" in2="shape" result="effect2_innerShadow_43_2927"/>
</filter>
<filter id="filter1_bi_43_2927" x="-6" y="3.13086" width="66.7826" height="62.8694" filterUnits="userSpaceOnUse" color-interpolation-filters="sRGB">
<feFlood flood-opacity="0" result="BackgroundImageFix"/>
<feGaussianBlur in="BackgroundImageFix" stdDeviation="3"/>
<feComposite in2="SourceAlpha" operator="in" result="effect1_backgroundBlur_43_2927"/>
<feBlend mode="normal" in="SourceGraphic" in2="effect1_backgroundBlur_43_2927" result="shape"/>
<feColorMatrix in="SourceAlpha" type="matrix" values="0 0 0 0 0 0 0 0 0 0 0 0 0 0 0 0 0 0 127 0" result="hardAlpha"/>
<feOffset dy="2"/>
<feGaussianBlur stdDeviation="1.5"/>
<feComposite in2="hardAlpha" operator="arithmetic" k2="-1" k3="1"/>
<feColorMatrix type="matrix" values="0 0 0 0 1 0 0 0 0 1 0 0 0 0 1 0 0 0 0.15 0"/>
<feBlend mode="normal" in2="shape" result="effect2_innerShadow_43_2927"/>
</filter>
<filter id="filter2_i_43_2927" x="39.1309" y="30" width="20.8695" height="15.0435" filterUnits="userSpaceOnUse" color-interpolation-filters="sRGB">
<feFlood flood-opacity="0" result="BackgroundImageFix"/>
<feBlend mode="normal" in="SourceGraphic" in2="BackgroundImageFix" result="shape"/>
<feColorMatrix in="SourceAlpha" type="matrix" values="0 0 0 0 0 0 0 0 0 0 0 0 0 0 0 0 0 0 127 0" result="hardAlpha"/>
<feOffset dy="2"/>
<feGaussianBlur stdDeviation="1"/>
<feComposite in2="hardAlpha" operator="arithmetic" k2="-1" k3="1"/>
<feColorMatrix type="matrix" values="0 0 0 0 1 0 0 0 0 1 0 0 0 0 1 0 0 0 0.4 0"/>
<feBlend mode="normal" in2="shape" result="effect1_innerShadow_43_2927"/>
</filter>
<filter id="filter3_i_43_2927" x="43.0444" y="33.9136" width="5.21741" height="7.21741" filterUnits="userSpaceOnUse" color-interpolation-filters="sRGB">
<feFlood flood-opacity="0" result="BackgroundImageFix"/>
<feBlend mode="normal" in="SourceGraphic" in2="BackgroundImageFix" result="shape"/>
<feColorMatrix in="SourceAlpha" type="matrix" values="0 0 0 0 0 0 0 0 0 0 0 0 0 0 0 0 0 0 127 0" result="hardAlpha"/>
<feOffset dy="2"/>
<feGaussianBlur stdDeviation="1"/>
<feComposite in2="hardAlpha" operator="arithmetic" k2="-1" k3="1"/>
<feColorMatrix type="matrix" values="0 0 0 0 1 0 0 0 0 1 0 0 0 0 1 0 0 0 0.1 0"/>
<feBlend mode="normal" in2="shape" result="effect1_innerShadow_43_2927"/>
</filter>
<linearGradient id="paint0_linear_43_2927" x1="1.79348" y1="6.78372" x2="31.9957" y2="29.8549" gradientUnits="userSpaceOnUse">
<stop stop-color="#8AE6CF"/>
<stop offset="1" stop-color="#7C3AE7"/>
</linearGradient>
<linearGradient id="paint1_linear_43_2927" x1="8.26021" y1="13.4788" x2="53.9678" y2="19.0194" gradientUnits="userSpaceOnUse">
<stop stop-color="#8AE6CF"/>
<stop offset="1" stop-color="#7C3AE7"/>
</linearGradient>
<linearGradient id="paint2_linear_43_2927" x1="7.82534" y1="2.35178" x2="48.2601" y2="2.35178" gradientUnits="userSpaceOnUse">
<stop stop-color="#C8A6FF"/>
<stop offset="1" stop-color="#69CFB5"/>
</linearGradient>
<linearGradient id="paint3_linear_43_2927" x1="2.28261" y1="19.3048" x2="61.8202" y2="28.21" gradientUnits="userSpaceOnUse">
<stop stop-color="#66FECB"/>
<stop offset="1" stop-color="#8940FF"/>
</linearGradient>
<linearGradient id="paint4_linear_43_2927" x1="1.71196" y1="11.4431" x2="54.7826" y2="11.4431" gradientUnits="userSpaceOnUse">
<stop stop-color="#C8A6FF"/>
<stop offset="1" stop-color="#69CFB5"/>
</linearGradient>
<linearGradient id="paint5_linear_43_2927" x1="40.0004" y1="32.6087" x2="62.0976" y2="37.5192" gradientUnits="userSpaceOnUse">
<stop stop-color="#8AE6CF"/>
<stop offset="1" stop-color="#7C3AE7"/>
</linearGradient>
</defs>
</svg>
